<mxfile host="app.diagrams.net" agent="Mozilla/5.0 (Macintosh; Intel Mac OS X 10_15_7) AppleWebKit/605.1.15 (KHTML, like Gecko) Version/26.0.1 Safari/605.1.15" version="28.2.3">
  <diagram name="Page-1" id="BAqtEM7opSnC6EhOqjab">
    <mxGraphModel dx="1673" dy="810" grid="1" gridSize="10" guides="1" tooltips="1" connect="1" arrows="1" fold="1" page="1" pageScale="1" pageWidth="827" pageHeight="1169" math="0" shadow="0">
      <root>
        <mxCell id="0" />
        <mxCell id="1" parent="0" />
        <mxCell id="l_uS7zV2jWph7qsLD738-58" style="edgeStyle=orthogonalEdgeStyle;rounded=0;orthogonalLoop=1;jettySize=auto;html=1;exitX=0;exitY=0.75;exitDx=0;exitDy=0;entryX=0.25;entryY=0;entryDx=0;entryDy=0;strokeColor=#182E3E;" edge="1" parent="1" source="l_uS7zV2jWph7qsLD738-1" target="l_uS7zV2jWph7qsLD738-2">
          <mxGeometry relative="1" as="geometry" />
        </mxCell>
        <mxCell id="l_uS7zV2jWph7qsLD738-1" value="user interface and input" style="rounded=0;whiteSpace=wrap;html=1;labelBackgroundColor=none;fillColor=#56517E;strokeColor=#EEEEEE;fontColor=#FFFFFF;" vertex="1" parent="1">
          <mxGeometry x="214" y="40" width="200" height="30" as="geometry" />
        </mxCell>
        <mxCell id="l_uS7zV2jWph7qsLD738-2" value="upload certificate&lt;div&gt;(PDF/Image)&amp;nbsp;&lt;/div&gt;" style="rounded=1;whiteSpace=wrap;html=1;labelBackgroundColor=none;fillColor=#56517E;strokeColor=#EEEEEE;fontColor=#FFFFFF;" vertex="1" parent="1">
          <mxGeometry x="110" y="140" width="120" height="60" as="geometry" />
        </mxCell>
        <mxCell id="l_uS7zV2jWph7qsLD738-3" value="platform&amp;nbsp;" style="rounded=1;whiteSpace=wrap;html=1;labelBackgroundColor=none;fillColor=#56517E;strokeColor=#EEEEEE;fontColor=#FFFFFF;" vertex="1" parent="1">
          <mxGeometry x="400" y="140" width="120" height="60" as="geometry" />
        </mxCell>
        <mxCell id="l_uS7zV2jWph7qsLD738-4" style="edgeStyle=orthogonalEdgeStyle;rounded=0;orthogonalLoop=1;jettySize=auto;html=1;exitX=0.5;exitY=1;exitDx=0;exitDy=0;labelBackgroundColor=none;strokeColor=#182E3E;fontColor=default;" edge="1" parent="1" source="l_uS7zV2jWph7qsLD738-1" target="l_uS7zV2jWph7qsLD738-1">
          <mxGeometry relative="1" as="geometry" />
        </mxCell>
        <mxCell id="l_uS7zV2jWph7qsLD738-64" style="edgeStyle=orthogonalEdgeStyle;rounded=0;orthogonalLoop=1;jettySize=auto;html=1;exitX=0;exitY=0.25;exitDx=0;exitDy=0;entryX=0.25;entryY=0;entryDx=0;entryDy=0;strokeColor=#182E3E;" edge="1" parent="1" source="l_uS7zV2jWph7qsLD738-6" target="l_uS7zV2jWph7qsLD738-11">
          <mxGeometry relative="1" as="geometry" />
        </mxCell>
        <mxCell id="l_uS7zV2jWph7qsLD738-65" style="edgeStyle=orthogonalEdgeStyle;rounded=0;orthogonalLoop=1;jettySize=auto;html=1;exitX=1;exitY=0.25;exitDx=0;exitDy=0;entryX=0.75;entryY=0;entryDx=0;entryDy=0;strokeColor=#182E3E;" edge="1" parent="1" source="l_uS7zV2jWph7qsLD738-6" target="l_uS7zV2jWph7qsLD738-12">
          <mxGeometry relative="1" as="geometry" />
        </mxCell>
        <mxCell id="l_uS7zV2jWph7qsLD738-6" value="Aggregation and normalization Layer" style="rounded=0;whiteSpace=wrap;html=1;labelBackgroundColor=none;fillColor=#56517E;strokeColor=#EEEEEE;fontColor=#FFFFFF;" vertex="1" parent="1">
          <mxGeometry x="200" y="250" width="220" height="30" as="geometry" />
        </mxCell>
        <mxCell id="l_uS7zV2jWph7qsLD738-8" style="edgeStyle=orthogonalEdgeStyle;rounded=0;orthogonalLoop=1;jettySize=auto;html=1;exitX=0.5;exitY=1;exitDx=0;exitDy=0;labelBackgroundColor=none;strokeColor=#182E3E;fontColor=default;" edge="1" parent="1" source="l_uS7zV2jWph7qsLD738-6" target="l_uS7zV2jWph7qsLD738-6">
          <mxGeometry relative="1" as="geometry" />
        </mxCell>
        <mxCell id="l_uS7zV2jWph7qsLD738-27" style="edgeStyle=orthogonalEdgeStyle;rounded=0;orthogonalLoop=1;jettySize=auto;html=1;exitX=1;exitY=0.5;exitDx=0;exitDy=0;entryX=0;entryY=0.5;entryDx=0;entryDy=0;labelBackgroundColor=none;strokeColor=#182E3E;fontColor=default;" edge="1" parent="1" source="l_uS7zV2jWph7qsLD738-11" target="l_uS7zV2jWph7qsLD738-12">
          <mxGeometry relative="1" as="geometry" />
        </mxCell>
        <mxCell id="l_uS7zV2jWph7qsLD738-11" value="certificate parser&amp;nbsp;" style="rounded=1;whiteSpace=wrap;html=1;labelBackgroundColor=none;fillColor=#56517E;strokeColor=#EEEEEE;fontColor=#FFFFFF;" vertex="1" parent="1">
          <mxGeometry x="120" y="310" width="120" height="60" as="geometry" />
        </mxCell>
        <mxCell id="l_uS7zV2jWph7qsLD738-12" value="cedenial normalizer" style="rounded=1;whiteSpace=wrap;html=1;labelBackgroundColor=none;fillColor=#56517E;strokeColor=#EEEEEE;fontColor=#FFFFFF;" vertex="1" parent="1">
          <mxGeometry x="380" y="310" width="120" height="60" as="geometry" />
        </mxCell>
        <mxCell id="l_uS7zV2jWph7qsLD738-74" style="edgeStyle=orthogonalEdgeStyle;rounded=0;orthogonalLoop=1;jettySize=auto;html=1;strokeColor=#182E3E;entryX=0.613;entryY=0.047;entryDx=0;entryDy=0;entryPerimeter=0;" edge="1" parent="1" source="l_uS7zV2jWph7qsLD738-13" target="l_uS7zV2jWph7qsLD738-15">
          <mxGeometry relative="1" as="geometry">
            <mxPoint x="500" y="550" as="targetPoint" />
          </mxGeometry>
        </mxCell>
        <mxCell id="l_uS7zV2jWph7qsLD738-76" style="edgeStyle=orthogonalEdgeStyle;rounded=0;orthogonalLoop=1;jettySize=auto;html=1;strokeColor=#182E3E;" edge="1" parent="1" source="l_uS7zV2jWph7qsLD738-13" target="l_uS7zV2jWph7qsLD738-14">
          <mxGeometry relative="1" as="geometry" />
        </mxCell>
        <mxCell id="l_uS7zV2jWph7qsLD738-77" value="" style="edgeStyle=orthogonalEdgeStyle;rounded=0;orthogonalLoop=1;jettySize=auto;html=1;strokeColor=#182E3E;" edge="1" parent="1" source="l_uS7zV2jWph7qsLD738-13" target="l_uS7zV2jWph7qsLD738-16">
          <mxGeometry relative="1" as="geometry" />
        </mxCell>
        <mxCell id="l_uS7zV2jWph7qsLD738-13" value="verification engine&amp;nbsp;" style="rounded=0;whiteSpace=wrap;html=1;labelBackgroundColor=none;fillColor=#56517E;strokeColor=#EEEEEE;fontColor=#FFFFFF;" vertex="1" parent="1">
          <mxGeometry x="230" y="480" width="190" height="30" as="geometry" />
        </mxCell>
        <mxCell id="l_uS7zV2jWph7qsLD738-28" style="edgeStyle=orthogonalEdgeStyle;rounded=0;orthogonalLoop=1;jettySize=auto;html=1;exitX=1;exitY=0.5;exitDx=0;exitDy=0;entryX=0;entryY=0.5;entryDx=0;entryDy=0;labelBackgroundColor=none;strokeColor=#182E3E;fontColor=default;" edge="1" parent="1" source="l_uS7zV2jWph7qsLD738-14" target="l_uS7zV2jWph7qsLD738-16">
          <mxGeometry relative="1" as="geometry" />
        </mxCell>
        <mxCell id="l_uS7zV2jWph7qsLD738-14" value="API verification" style="rounded=1;whiteSpace=wrap;html=1;labelBackgroundColor=none;fillColor=#56517E;strokeColor=#EEEEEE;fontColor=#FFFFFF;" vertex="1" parent="1">
          <mxGeometry x="170" y="560" width="100" height="70" as="geometry" />
        </mxCell>
        <mxCell id="l_uS7zV2jWph7qsLD738-15" value="blockchain Smart contract (optional)" style="rounded=1;whiteSpace=wrap;html=1;labelBackgroundColor=none;fillColor=#56517E;strokeColor=#EEEEEE;fontColor=#FFFFFF;" vertex="1" parent="1">
          <mxGeometry x="410" y="560" width="100" height="70" as="geometry" />
        </mxCell>
        <mxCell id="l_uS7zV2jWph7qsLD738-29" style="edgeStyle=orthogonalEdgeStyle;rounded=0;orthogonalLoop=1;jettySize=auto;html=1;exitX=1;exitY=0.5;exitDx=0;exitDy=0;entryX=0;entryY=0.5;entryDx=0;entryDy=0;labelBackgroundColor=none;strokeColor=#182E3E;fontColor=default;" edge="1" parent="1" source="l_uS7zV2jWph7qsLD738-16" target="l_uS7zV2jWph7qsLD738-15">
          <mxGeometry relative="1" as="geometry" />
        </mxCell>
        <mxCell id="l_uS7zV2jWph7qsLD738-16" value="QR code validator" style="rounded=1;whiteSpace=wrap;html=1;labelBackgroundColor=none;fillColor=#56517E;strokeColor=#EEEEEE;fontColor=#FFFFFF;" vertex="1" parent="1">
          <mxGeometry x="290" y="560" width="100" height="70" as="geometry" />
        </mxCell>
        <mxCell id="l_uS7zV2jWph7qsLD738-17" value="user dashboard and analytics" style="rounded=0;whiteSpace=wrap;html=1;labelBackgroundColor=none;fillColor=#56517E;strokeColor=#EEEEEE;fontColor=#FFFFFF;" vertex="1" parent="1">
          <mxGeometry x="230" y="720" width="220" height="30" as="geometry" />
        </mxCell>
        <mxCell id="l_uS7zV2jWph7qsLD738-30" style="edgeStyle=orthogonalEdgeStyle;rounded=0;orthogonalLoop=1;jettySize=auto;html=1;exitX=0;exitY=0.75;exitDx=0;exitDy=0;entryX=1;entryY=0.5;entryDx=0;entryDy=0;labelBackgroundColor=none;strokeColor=#182E3E;fontColor=default;" edge="1" parent="1" source="l_uS7zV2jWph7qsLD738-19" target="l_uS7zV2jWph7qsLD738-15">
          <mxGeometry relative="1" as="geometry" />
        </mxCell>
        <mxCell id="l_uS7zV2jWph7qsLD738-62" style="edgeStyle=orthogonalEdgeStyle;rounded=0;orthogonalLoop=1;jettySize=auto;html=1;exitX=0.25;exitY=0;exitDx=0;exitDy=0;entryX=1;entryY=0.5;entryDx=0;entryDy=0;strokeColor=#182E3E;" edge="1" parent="1" source="l_uS7zV2jWph7qsLD738-19" target="l_uS7zV2jWph7qsLD738-3">
          <mxGeometry relative="1" as="geometry">
            <Array as="points">
              <mxPoint x="675" y="590" />
              <mxPoint x="675" y="180" />
              <mxPoint x="560" y="180" />
              <mxPoint x="560" y="170" />
            </Array>
          </mxGeometry>
        </mxCell>
        <mxCell id="l_uS7zV2jWph7qsLD738-19" value="backend and security&amp;nbsp;" style="rounded=1;whiteSpace=wrap;html=1;labelBackgroundColor=none;fillColor=#56517E;strokeColor=#EEEEEE;fontColor=#FFFFFF;" vertex="1" parent="1">
          <mxGeometry x="630" y="590" width="140" height="40" as="geometry" />
        </mxCell>
        <mxCell id="l_uS7zV2jWph7qsLD738-38" style="edgeStyle=orthogonalEdgeStyle;rounded=0;orthogonalLoop=1;jettySize=auto;html=1;entryX=0;entryY=0.75;entryDx=0;entryDy=0;strokeColor=#182E3E;" edge="1" parent="1" source="l_uS7zV2jWph7qsLD738-20" target="l_uS7zV2jWph7qsLD738-17">
          <mxGeometry relative="1" as="geometry" />
        </mxCell>
        <mxCell id="l_uS7zV2jWph7qsLD738-20" value="hackathon Impact&amp;nbsp;&lt;div&gt;Automation Save time&lt;/div&gt;&lt;div&gt;Multiple methods&lt;/div&gt;&lt;div&gt;Security&lt;/div&gt;" style="rounded=1;whiteSpace=wrap;html=1;labelBackgroundColor=none;fillColor=#56517E;strokeColor=#EEEEEE;fontColor=#FFFFFF;" vertex="1" parent="1">
          <mxGeometry x="-40" y="720" width="130" height="120" as="geometry" />
        </mxCell>
        <mxCell id="l_uS7zV2jWph7qsLD738-31" value="Backened APIS" style="rounded=1;whiteSpace=wrap;html=1;labelBackgroundColor=none;fillColor=#56517E;strokeColor=#EEEEEE;fontColor=#FFFFFF;" vertex="1" parent="1">
          <mxGeometry x="650" y="630" width="100" height="70" as="geometry" />
        </mxCell>
        <mxCell id="l_uS7zV2jWph7qsLD738-66" style="edgeStyle=orthogonalEdgeStyle;rounded=0;orthogonalLoop=1;jettySize=auto;html=1;exitX=0.5;exitY=0;exitDx=0;exitDy=0;entryX=0;entryY=0.5;entryDx=0;entryDy=0;strokeColor=#182E3E;" edge="1" parent="1" source="l_uS7zV2jWph7qsLD738-32" target="l_uS7zV2jWph7qsLD738-2">
          <mxGeometry relative="1" as="geometry" />
        </mxCell>
        <mxCell id="l_uS7zV2jWph7qsLD738-32" value="Nockelized Credential" style="rounded=1;whiteSpace=wrap;html=1;labelBackgroundColor=none;fillColor=#56517E;strokeColor=#EEEEEE;fontColor=#FFFFFF;" vertex="1" parent="1">
          <mxGeometry x="-40" y="585" width="140" height="40" as="geometry" />
        </mxCell>
        <mxCell id="l_uS7zV2jWph7qsLD738-35" style="edgeStyle=orthogonalEdgeStyle;rounded=0;orthogonalLoop=1;jettySize=auto;html=1;exitX=1;exitY=0.25;exitDx=0;exitDy=0;entryX=-0.04;entryY=0.656;entryDx=0;entryDy=0;entryPerimeter=0;labelBackgroundColor=none;strokeColor=#182E3E;fontColor=default;" edge="1" parent="1" source="l_uS7zV2jWph7qsLD738-32" target="l_uS7zV2jWph7qsLD738-14">
          <mxGeometry relative="1" as="geometry" />
        </mxCell>
        <mxCell id="l_uS7zV2jWph7qsLD738-50" style="edgeStyle=orthogonalEdgeStyle;rounded=0;orthogonalLoop=1;jettySize=auto;html=1;entryX=0;entryY=0.5;entryDx=0;entryDy=0;strokeColor=#182E3E;" edge="1" parent="1" source="l_uS7zV2jWph7qsLD738-49" target="l_uS7zV2jWph7qsLD738-31">
          <mxGeometry relative="1" as="geometry" />
        </mxCell>
        <mxCell id="l_uS7zV2jWph7qsLD738-49" value="" style="shape=curlyBracket;whiteSpace=wrap;html=1;rounded=1;flipH=1;labelPosition=right;verticalLabelPosition=middle;align=left;verticalAlign=middle;strokeColor=#3700CC;fontColor=#ffffff;fillColor=#6a00ff;size=0;" vertex="1" parent="1">
          <mxGeometry x="530" y="610" width="30" height="150" as="geometry" />
        </mxCell>
        <mxCell id="l_uS7zV2jWph7qsLD738-51" value="" style="html=1;shadow=0;dashed=0;align=center;verticalAlign=middle;shape=mxgraph.arrows2.arrow;dy=0.6;dx=40;direction=south;notch=0;strokeColor=#EEEEEE;fontColor=#FFFFFF;fillColor=#56517E;" vertex="1" parent="1">
          <mxGeometry x="290" y="350" width="40" height="120" as="geometry" />
        </mxCell>
        <mxCell id="l_uS7zV2jWph7qsLD738-53" value="" style="html=1;shadow=0;dashed=0;align=center;verticalAlign=middle;shape=mxgraph.arrows2.arrow;dy=0.6;dx=40;direction=south;notch=0;strokeColor=#EEEEEE;fontColor=#FFFFFF;fillColor=#56517E;" vertex="1" parent="1">
          <mxGeometry x="294" y="90" width="40" height="140" as="geometry" />
        </mxCell>
        <mxCell id="l_uS7zV2jWph7qsLD738-59" style="edgeStyle=orthogonalEdgeStyle;rounded=0;orthogonalLoop=1;jettySize=auto;html=1;exitX=1;exitY=0.5;exitDx=0;exitDy=0;entryX=0.654;entryY=-0.04;entryDx=0;entryDy=0;entryPerimeter=0;strokeColor=#182E3E;" edge="1" parent="1" source="l_uS7zV2jWph7qsLD738-1" target="l_uS7zV2jWph7qsLD738-3">
          <mxGeometry relative="1" as="geometry" />
        </mxCell>
        <mxCell id="l_uS7zV2jWph7qsLD738-67" value="&lt;h5&gt;&lt;span style=&quot;font-size: 12px; font-weight: 400;&quot;&gt;Authenticity and Check (Valid/Invalid)&lt;/span&gt;&lt;br&gt;&lt;/h5&gt;" style="text;html=1;align=center;verticalAlign=middle;whiteSpace=wrap;rounded=0;fontColor=#ffffff;fillColor=#76608a;strokeColor=#432D57;fontSize=10;" vertex="1" parent="1">
          <mxGeometry x="260" y="640" width="170" height="30" as="geometry" />
        </mxCell>
        <mxCell id="l_uS7zV2jWph7qsLD738-79" style="edgeStyle=orthogonalEdgeStyle;rounded=0;orthogonalLoop=1;jettySize=auto;html=1;strokeColor=#182E3E;exitX=1;exitY=0.25;exitDx=0;exitDy=0;" edge="1" parent="1" target="l_uS7zV2jWph7qsLD738-19">
          <mxGeometry relative="1" as="geometry">
            <mxPoint x="530" y="157.43" as="sourcePoint" />
            <mxPoint x="724.1399999999999" y="579.9899999999999" as="targetPoint" />
            <Array as="points">
              <mxPoint x="700" y="157" />
            </Array>
          </mxGeometry>
        </mxCell>
      </root>
    </mxGraphModel>
  </diagram>
</mxfile>
